<?xml version="1.0" encoding="utf-8"?>
<!-- Generator: Adobe Illustrator 21.1.0, SVG Export Plug-In . SVG Version: 6.00 Build 0)  -->
<svg version="1.1"
	 id="svg3041" xmlns:cc="http://creativecommons.org/ns#" xmlns:dc="http://purl.org/dc/elements/1.1/" xmlns:rdf="http://www.w3.org/1999/02/22-rdf-syntax-ns#" xmlns:svg="http://www.w3.org/2000/svg"
	 xmlns="http://www.w3.org/2000/svg" xmlns:xlink="http://www.w3.org/1999/xlink" x="0px" y="0px" viewBox="0 0 1500 235"
	 style="enable-background:new 0 0 1500 235;" xml:space="preserve">
<style type="text/css">
	.st0{fill:#4A4C4E;}
	.st1{fill:#545454;}
</style>
<path id="rect3776" class="st0" d="M31.9,54C13.8,54-0.8,65.2-0.8,79.2v75.6c0,9.4,6.6,17.6,16.5,21.9L43,149.4v-3.8V88h78.4v57.7
	h-57l-34.3,34.3c0.6,0,1.2,0,1.9,0h99.6c18.1,0,32.8-11.2,32.8-25.2V86.8l-19.3-30.7c-4.1-1.4-8.6-2.2-13.4-2.2
	C131.5,54,31.9,54,31.9,54z"/>
<path id="rect3776-0" class="st0" d="M1195.5,54c-1.7,0-3.3,0.1-4.9,0.3l-27.8,42.1v58.5c0,14,14.6,25.2,32.8,25.2h90.7
	c18.1,0,32.8-11.2,32.8-25.2v-25.9h-43.7v16.7h-68.3V88h68.3v14.4h43.7V79.2c0-14-14.6-25.2-32.8-25.2L1195.5,54L1195.5,54z"/>
<path id="path3863" class="st0" d="M159.3,54l79.6,126h15.7h15.7l79.6-126h-48.5l-46.8,74.9L207.8,54L159.3,54L159.3,54z"/>
<path id="rect3885" class="st0" d="M367.1,54l-20.5,32.5V180h133v-34.3h-29.5h-60.5v-14.4h60.5v-28.9h-60.5V88h90V54H367.1L367.1,54
	z"/>
<path id="rect3950" class="st0" d="M496.4,54v22.7v32.5V180h43.5v-34.3v-13.8V88h18.4H606v18.6h-47.7v25.2l52.8,48.2h58.6
	l-52.8-48.2h4.9c14.5,0,26.2-10.1,26.2-22.7V76.7c0-12.6-11.7-22.7-26.2-22.7h-81.9h-17.3L496.4,54L496.4,54z"/>
<path id="path3863-2" class="st0" d="M843.8,180l83.3-126h16.4H960l83.3,126h-50.8l-49-74.9l-49,74.9H843.8z"/>
<path id="path3982" class="st0" d="M655.2,54l55.2,126h27.5l28.8-62.1l27.4,62.1h30l55.3-126h-43l-26.2,63l-27.8-63h-15.7h-12.9
	l-27.8,63l-26.5-63L655.2,54L655.2,54z"/>
<path id="rect4003" class="st0" d="M1009.1,54v34h54.1v92h43.1V88h42.8l22.6-34L1009.1,54L1009.1,54z"/>
<path id="rect4024" class="st0" d="M1335.6,54v126h44.2v-48.4h74.7V180h43.5V54h-43.5v44.3h-74.7V54H1335.6z"/>
<path id="path4072" class="st1" d="M219.6,54l35-51.6l35,51.6h-35H219.6z"/>
<path id="path4072-1" class="st1" d="M908.6,180l35,51.6l35-51.6h-35H908.6z"/>
</svg>
