<svg id="Layer_1" data-name="Layer 1" xmlns="http://www.w3.org/2000/svg" viewBox="0 0 7359.38 1600"><defs><style>.cls-1{fill:#19254f;}.cls-2{fill:#0a1121;}</style></defs><title>logo-horizontal-dark</title><g id="layer101"><path class="cls-1" d="M1104.39,1431.35q-102.14,89.49-226,131c-71.2,23.9-137.06,34.64-212.55,34.64s-141.35-10.74-212.55-34.64c-116.4-39-219.75-110.62-299.52-207.65C77.89,1262.5,28.16,1149.46,11.22,1030.34c-28-197,32.21-393.64,165.18-539.39,9.25-10.12,90.39-91.63,251.23-252.22L662.6,4.12a3.77,3.77,0,0,1,5.32,0l49.8,49.79,49.8,49.8a3.78,3.78,0,0,1,0,5.32L524.72,352.58C389.7,488,278.46,600,277.46,601.32s-5.64,7.39-10.42,13.16c-62.58,77.1-101.44,173.2-110.19,273.08A505.81,505.81,0,0,0,277,1262c13,15.08,37.68,40.16,51.71,52.33,74.24,64.43,163.88,105.65,260.1,119.56,122,17.56,244.52-9.13,347.51-75.61a515.22,515.22,0,0,0,132.1-123.66,506.28,506.28,0,0,0,90.2-402.32,481.4,481.4,0,0,0-17.76-64.81,464.77,464.77,0,0,0-25.76-61.77L1109.76,695a3.77,3.77,0,0,0-6-1l-42.24,41.9c-25.2,25.08-46,46-46.25,46.5s1.12,4.59,3,9.06c8.51,20.18,17.82,51.84,22.1,74.62,12.23,65.61,6.83,136.44-15,198.21-19.74,55.75-48.42,101.06-90.69,143.34s-87.6,70.95-143.34,90.69c-61.77,21.79-132.6,27.19-198.21,15-142-26.44-258.37-133-297.23-272.27-16.26-58.23-18.44-120.61-6.33-181.14a379.77,379.77,0,0,1,59.78-140.11c40.1-57.85,93-102,157.3-131.35,47.49-21.67,99-32.9,153.27-33.46,62.89-.68,120.43,12.41,175.43,40,28.81,14.4,56.8,33,77.85,51.52l4.12,3.67a3.76,3.76,0,0,0,5.15-.15l97-96.76,97-96.59a3.75,3.75,0,0,1,5.27,0l8.71,8.42c70.64,68.28,128,159.16,160.9,255,60.9,177.23,43.83,373.33-46.56,536.35-23.71,42.71-50.22,80.14-84.42,119.19C1150.27,1387,1116.07,1421.17,1104.39,1431.35ZM845.66,1065.22c29.17-41.84,43.26-90.44,40.41-139.86l-.27-4.69a3.76,3.76,0,0,0-6.38-2.47l-17.19,16.72-20.49,20a3.77,3.77,0,0,1-5.29,0l-53.24-53.24L730,848.36a3.76,3.76,0,0,1,0-5.3l36.79-37.13,36.48-36.72a3.76,3.76,0,0,0-.35-5.62h0c-23.22-17.63-41.84-27.69-67.48-36.44a210.58,210.58,0,0,0-66.49-12c-50.09-1.18-101.06,15.89-141.16,47.05-11.3,8.82-29.67,27.19-38.49,38.49-31.16,40.1-48.23,91.07-47,141.17.87,39.23,13,80.08,33.77,113,10.36,16.45,16.39,23.83,31.66,39.1s22.72,21.36,39,31.54a221,221,0,0,0,243.22-5.21c13.59-9.38,18.25-13.41,33.71-29.37C836.1,1078.13,839.33,1074.29,845.66,1065.22Z"/></g><path class="cls-2" d="M1681.83,632.69q32.49-77.88,88.62-134.54t135.35-90.24q79.23-33.57,168.39-33.57t167.31,33.84a425.89,425.89,0,0,1,137.23,94.53l-90.24,101.51q-83.79-97.74-214.3-97.75-77.89,0-142.88,39.75a282.53,282.53,0,0,0-101.78,106.61q-36.79,66.87-36.79,144.75,0,78.42,37.87,144.49t102.85,104.46q65,38.42,141.8,38.41,56.4,0,112-25t94.8-65.26l84.86,101a447.19,447.19,0,0,1-133.47,89.16q-74.39,32.22-158.18,32.23-115.49,0-213.23-55.06T1706.8,1010q-57.46-96.94-57.47-213.5A421.1,421.1,0,0,1,1681.83,632.69Z"/><path class="cls-2" d="M2491.52,447.12q24.7-24.44,61.23-24.44,36,0,60.16,24.17t24.17,60.69q0,36.52-24.17,61T2552.75,593q-36.52,0-61.23-24.71t-24.71-60.7Q2466.81,471.56,2491.52,447.12Zm-7,232.84h135.35v522.6H2484.54Z"/><path class="cls-2" d="M2785.86,680h135.35v38.67q19.88-15,33.57-23.37t42.16-16.65q28.47-8.33,61.77-8.32,44,0,81.64,13.43A203.54,203.54,0,0,1,3208,724q30.09,26.85,47,72.24t16.92,105v301.31H3136.59V923.27q0-123.54-108-123.54-107.43,0-107.42,121.39v281.44H2785.86Z"/><path class="cls-2" d="M3400.58,840.82q19.07-50.22,53.44-88.08t85.67-60.16q51.29-22.29,112-22.29,75.2,0,135.88,37.6t94,99.63q33.3,62,33.3,135.62a268.67,268.67,0,0,1-3.22,43H3513.1q11.82,49.41,50.22,78.95t95.34,29.55a183.3,183.3,0,0,0,72-14.51,135.64,135.64,0,0,0,56.4-43.5l92.38,73.58q-35.44,50-94,78.42t-125.69,28.47q-77.34,0-141.26-35.45T3418,1083.86q-36.53-62.29-36.52-137.5A294.85,294.85,0,0,1,3400.58,840.82Zm377.85,45.92q-5.89-39.74-42.43-66.6t-85.4-26.85q-46.72,0-82.18,25.51t-50.48,67.94Z"/><path class="cls-2" d="M4035.71,680h135.35v38.67q22-16.11,35.18-24.17t40.28-16.11q27.13-8.07,59.36-8.06,112.24,0,165.42,77.88,34.38-41.35,80.84-59.62t93.73-18.26q92.37,0,148.51,56.93t56.12,174v301.31H4715.15V923.27q0-38.14-7.79-63.92t-22.29-38.13q-14.49-12.36-29.81-16.92t-35.71-4.57q-109,0-109,121.39v281.44H4375.16V923.27q0-38.14-7.79-63.92t-22.29-38.13q-14.49-12.36-29.81-16.92t-35.71-4.57q-108.5,0-108.5,121.39v281.44H4035.71Z"/><path class="cls-2" d="M5041.45,749.78q80.84-79.49,196.31-79.49,83.79,0,145,48.34V680h135.35v522.6H5382.78v-33.83q-59.62,48.33-145,48.34-75.73,0-139.65-36.8t-100.71-99.9q-36.78-63.1-36.79-137.23Q4960.61,829.28,5041.45,749.78ZM5136,1044.39q42.69,42.69,101.78,42.7,60.15,0,102.59-42.7t42.43-101.25q0-58-42.43-100.71t-102.59-42.7q-59.09,0-101.78,42.7t-42.7,100.71Q5093.28,1001.69,5136,1044.39Z"/><path class="cls-2" d="M5622.33,680H5705V502.71h134.82V680H5979v130H5839.86v208.93q0,70.36,58.54,70.36,15,0,31.43-1.34t25.51-2.42l9.13-1.61v119.78q-39.75,13.42-104.74,13.43-74.65,0-114.67-45.66t-40-124.07V809.94h-82.71Z"/><path class="cls-2" d="M6124,447.12q24.7-24.44,61.23-24.44,36,0,60.16,24.17t24.17,60.69q0,36.52-24.17,61T6185.22,593q-36.53,0-61.23-24.71t-24.71-60.7Q6099.28,471.56,6124,447.12ZM6117,680h135.35v522.6H6117Z"/><path class="cls-2" d="M6455.12,749.78q80.84-79.49,196.31-79.49,73,0,134.82,33.57t99.36,90.5L6770.13,861.5a144.1,144.1,0,0,0-51-45.12,141.36,141.36,0,0,0-67.68-16.65q-59.09,0-101.78,42.7T6507,943.14q0,58.54,42.7,101.25t101.78,42.7a141.87,141.87,0,0,0,70.36-18,140.09,140.09,0,0,0,51.57-49.14l114.4,68.21q-37.07,58.54-99.9,93.73t-136.43,35.18q-75.74,0-139.65-36.8t-100.7-99.9q-36.8-63.1-36.8-137.23Q6374.28,829.28,6455.12,749.78Z"/><path class="cls-2" d="M7016.13,1039.82q32.76,28.47,71.7,41.09t72.78,12.62q33.3,0,48.34-11t15-27.12q0-15.59-14.5-26.59t-37.87-18q-23.35-7-51.56-14.51a478.5,478.5,0,0,1-56.67-19.06,260.82,260.82,0,0,1-51.83-27.93q-23.36-16.38-37.86-45.12t-14.5-66.87q0-73.59,49.68-120.31T7144,670.29q45.66,0,98,14.77a224.18,224.18,0,0,1,92.12,51.29L7262.66,833q-58-39.74-117.62-39.74-30.09,0-41.9,9.93t-11.82,23.37q0,14.5,14.51,25.51t37.59,18.8q23.1,7.79,51,16.11A428.38,428.38,0,0,1,7250,908a287.43,287.43,0,0,1,50.76,29.54q23.08,16.92,37.59,46.19t14.51,66.87q0,74.13-52.64,120.32t-148.78,46.19q-65.52,0-114.4-20.15a395.64,395.64,0,0,1-92.39-54Z"/></svg>